<svg xmlns="http://www.w3.org/2000/svg" viewBox="0 0 196.56 201.76"><circle cx="98.28" cy="100.88" r="96" fill="#f5f5f5"/><path fill="#242424" d="m 92.673935,0.45814675 c -5.58596,0.73343805 -11.11719,1.07824205 -16.64,2.38716805 -17.48578,4.144219 -34.0283,13.1759572 -46.71877,25.9572852 -36.10539,36.363905 -38.84076,95.52906 -7.54543,135.67975 6.4508,8.27613 14.49514,15.43568 23.2242,21.22642 9.25635,6.14053 19.60805,10.65793 30.4,13.29209 11.53271,2.81496 23.76441,3.41715 35.519995,1.87137 51.69709,-6.79789 87.66025,-54.51705 85.4274,-105.509885 C 194.42207,51.531466 162.43854,12.377581 119.55393,2.6741818 111.10971,0.76353775 101.32325,-0.67751725 92.673935,0.45814675 M 112.51393,97.602345 c 5.49474,-0.23597 10.78621,-2.55097 16.32,-2.55062 1.76363,1.1e-4 5.17094,0.46589 5.68394,2.58049 0.56993,2.34918 -3.35543,3.859605 -5.04394,4.297045 -4.64156,1.20247 -9.20652,2.58339 -13.76,4.09976 -1.53291,0.51048 -3.92295,0.77902 -4.60815,2.4674 -1.19711,2.94974 -1.10423,7.0734 -1.55851,10.22593 -1.00508,6.97485 -2.0836,13.95906 -3.79383,20.8 -0.65449,2.61798 -1.19123,8.95328 -4.13334,10.04543 -3.198115,1.18718 -6.148955,-4.62889 -5.961715,-7.16543 0.79865,-10.81944 5.244995,-21.3794 5.335545,-32.32 -2.539315,0.80329 -7.323065,2.92281 -9.919995,2.00691 -2.81359,-0.9923 -5.77971,-4.82653 -2.8452,-7.31284 2.42477,-2.05441 7.19272,-2.52517 10.2052,-3.37901 1.46756,-0.41596 3.407765,-0.58562 3.989365,-2.212595 1.11705,-3.12483 1.07893,-6.95023 1.58643,-10.22247 1.79545,-11.57679 4.58453,-27.76839 15.2242,-34.656289 4.26482,-2.760957 11.36394,-3.476875 15.16197,0.512578 2.53701,2.664881 3.54483,6.616761 4.1168,10.143711 0.54144,3.33869 0.92965,10.48187 -2.66889,12.42247 -2.18613,1.17892 -3.98459,-1.29691 -4.51728,-3.14247 -1.00864,-3.4944 1.12367,-12.43506 -4.09286,-13.7832 -3.50783,-0.90656 -6.58632,4.92663 -7.74986,7.3832 -4.42027,9.33248 -5.08474,19.75457 -6.96988,29.76 M 73.153935,64.427775 c 4.7408,-0.8408 7.20935,4.81371 8.61902,8.53457 0.86504,2.28331 0.57379,4.98875 -2.21928,5.63383 -4.05824,0.93728 -8.77044,-1.936 -10.38939,-5.63383 -1.52369,-3.48026 -0.0165,-7.82407 3.98965,-8.53457 m -4.47877,26.59358 c 4.38475,-1.19287 7.59596,5.24432 7.26271,8.82099 -1.18373,12.704945 -4.66753,24.979475 -7.20023,37.440005 -0.65049,3.20033 -0.88045,11.25466 -4.86371,11.97531 -5.29781,0.95848 -6.57246,-5.09707 -5.88445,-8.77531 2.27152,-12.14412 4.61005,-24.28585 6.60322,-36.48 0.51385,-3.14372 0.31574,-11.956255 4.08246,-12.980995 z"/></svg>
