<?xml version="1.0" encoding="UTF-8" standalone="no"?>
<svg
   viewBox="0 0 202 202.00001"
   version="1.1"
   id="svg1"
   sodipodi:docname="ifk-favicon.svg"
   width="202"
   height="202"
   inkscape:version="1.3 (0e150ed6c4, 2023-07-21)"
   xmlns:inkscape="http://www.inkscape.org/namespaces/inkscape"
   xmlns:sodipodi="http://sodipodi.sourceforge.net/DTD/sodipodi-0.dtd"
   xmlns="http://www.w3.org/2000/svg"
   xmlns:svg="http://www.w3.org/2000/svg">
  <defs
     id="defs1" />
  <sodipodi:namedview
     id="namedview1"
     pagecolor="#000000"
     bordercolor="#000000"
     borderopacity="0.25"
     inkscape:showpageshadow="2"
     inkscape:pageopacity="0.0"
     inkscape:pagecheckerboard="false"
     inkscape:deskcolor="#d1d1d1"
     inkscape:zoom="1.4142136"
     inkscape:cx="-144.60334"
     inkscape:cy="168.29141"
     inkscape:window-width="1920"
     inkscape:window-height="991"
     inkscape:window-x="-9"
     inkscape:window-y="-9"
     inkscape:window-maximized="1"
     inkscape:current-layer="svg1" />
  <path
     fill="#242424"
     d="M 95.23173,0.57814879 C 89.484142,1.3115868 83.79287,1.6563908 78.11026,2.9653168 60.118537,7.1095358 43.097367,16.141274 30.039705,28.922602 -7.1103766,65.286507 -9.9248932,124.45166 22.275951,164.60235 c 6.637451,8.27613 14.91455,15.43568 23.896181,21.22642 9.524178,6.14053 20.1754,10.65793 31.27961,13.29209 11.866402,2.81496 24.452028,3.41715 36.547748,1.87137 53.19292,-6.79789 90.19666,-54.51705 87.8992,-105.509883 C 199.9239,51.651468 167.01494,12.497583 122.88948,2.7941838 114.20093,0.88353979 104.13131,-0.55751521 95.23173,0.57814879 M 115.64578,97.722347 c 5.65373,-0.23597 11.09831,-2.55097 16.79221,-2.55062 1.81466,1.1e-4 5.32056,0.46589 5.84841,2.58049 0.58642,2.349183 -3.45252,3.859603 -5.18989,4.297043 -4.77586,1.20247 -9.4729,2.58339 -14.15814,4.09976 -1.57726,0.51048 -4.03646,0.77902 -4.74148,2.4674 -1.23175,2.94974 -1.13618,7.0734 -1.60361,10.22593 -1.03416,6.97485 -2.14388,13.95906 -3.9036,20.8 -0.67343,2.61798 -1.2257,8.95328 -4.25293,10.04543 -3.29065,1.18718 -6.326874,-4.62889 -6.134217,-7.16543 0.821762,-10.81944 5.396757,-21.3794 5.489927,-32.32 -2.61279,0.80329 -7.534954,2.92281 -10.207026,2.00691 -2.895,-0.9923 -5.946942,-4.82653 -2.927524,-7.31284 2.49493,-2.05441 7.400838,-2.52517 10.50049,-3.37901 1.51002,-0.41596 3.50636,-0.58562 4.10479,-2.212593 1.14937,-3.12483 1.11014,-6.95023 1.63233,-10.22247 1.8474,-11.57679 4.71718,-27.76839 15.6647,-34.656289 4.38822,-2.760957 11.69275,-3.476875 15.60068,0.512578 2.61041,2.664881 3.6474,6.616761 4.23591,10.143711 0.55711,3.33869 0.95655,10.48187 -2.74611,12.42247 -2.24938,1.17892 -4.09988,-1.29691 -4.64798,-3.14247 -1.03783,-3.4944 1.15618,-12.43506 -4.21129,-13.7832 -3.60933,-0.90656 -6.77689,4.92663 -7.9741,7.3832 -4.54817,9.33248 -5.23186,19.75457 -7.17155,29.76 M 75.146928,64.547777 c 4.877972,-0.8408 7.417948,4.81371 8.868408,8.53457 0.890068,2.28331 0.590392,4.98875 -2.283494,5.63383 -4.175664,0.93728 -9.02421,-1.936 -10.690002,-5.63383 -1.567778,-3.48026 -0.01698,-7.82407 4.105088,-8.53457 m -4.608361,26.59358 c 4.511621,-1.19287 7.815745,5.24432 7.472853,8.82099 -1.21798,12.704943 -4.802582,24.979473 -7.408566,37.440003 -0.66931,3.20033 -0.905924,11.25466 -5.004438,11.97531 -5.4511,0.95848 -6.762631,-5.09707 -6.054714,-8.77531 2.337246,-12.14412 4.74344,-24.28585 6.794281,-36.48 0.528718,-3.14372 0.324875,-11.956253 4.200584,-12.980993 z"
     id="path1"
     style="display:inline;stroke-width:1.01437" />
  <path
     style="display:inline;opacity:1;fill:#ffffff;stroke:#ffffff;stroke-width:1.13386"
     d="m 62.124989,148.45994 c -1.350233,-0.78644 -2.37517,-3.18769 -2.373245,-5.56011 9.59e-4,-1.18241 0.996432,-7.32483 2.212163,-13.64983 3.150302,-16.38986 4.172731,-22.2364 5.000567,-28.59461 1.005359,-7.721689 2.32099,-9.892263 5.614321,-9.262703 1.592138,0.304356 3.995261,3.154045 4.731198,5.610383 0.841721,2.809414 -0.383894,11.23633 -3.878327,26.66608 -1.504797,6.64447 -3.07334,13.96271 -3.48565,16.26276 -0.898114,5.01007 -1.992437,7.92395 -3.223272,8.58267 -1.167688,0.62493 -3.478147,0.59747 -4.597755,-0.0546 z"
     id="path15" />
  <path
     style="display:inline;opacity:1;fill:#ffffff;stroke:#ffffff;stroke-width:1.13386"
     d="m 75.851858,77.435905 c -2.794174,-1.383086 -4.667427,-3.871674 -4.94104,-6.564096 -0.596647,-5.871175 6.310705,-8.327099 9.767285,-3.472779 1.558196,2.188284 3.561331,6.667367 3.567012,7.97597 0.01311,3.020108 -4.310614,4.081768 -8.393257,2.060905 z"
     id="path16" />
  <path
     style="opacity:1;fill:#ffffff;stroke:#ffffff;stroke-width:1.13386;fill-opacity:1"
     d="m 101.15464,148.125 c -2.866867,-3.07375 -3.062693,-5.57324 -1.13589,-14.49816 0.69782,-3.23226 1.7182,-7.97742 2.26752,-10.54479 0.94201,-4.40265 1.99603,-12.6187 1.66934,-13.0124 -0.0823,-0.0992 -1.55593,0.29455 -3.27471,0.875 C 98.962109,111.52509 96.564517,112 95.352914,112 c -1.847246,0 -2.482986,-0.28007 -3.937603,-1.73469 -3.536653,-3.53665 -1.376662,-5.98087 6.923003,-7.83396 2.759246,-0.61607 5.535396,-1.52804 6.169216,-2.02661 1.14704,-0.902253 1.57512,-2.642583 2.49783,-10.15474 0.62185,-5.062786 2.76123,-14.720719 4.19393,-18.93299 2.85488,-8.393602 7.58016,-14.789785 12.78903,-17.311357 3.52391,-1.705893 8.53176,-1.948207 11.41523,-0.552346 3.75771,1.819082 6.04686,6.153304 6.74669,12.774086 C 142.85353,72.880878 141.40665,77.25 138.5,77.25 c -2.455,0 -3.32445,-1.883036 -3.73997,-8.099987 C 134.28197,61.997499 133.42333,60.5 129.80027,60.5 c -3.32485,0 -7.42628,6.06436 -10.06508,14.882192 -1.12486,3.758837 -4.5162,22.195159 -4.1559,22.592698 0.1121,0.12369 3.45829,-0.409645 7.43597,-1.185189 8.40074,-1.637923 12.62578,-1.620883 14.30435,0.05769 0.84945,0.849451 0.93139,1.216488 0.46576,2.086515 -0.81534,1.523474 -2.39156,2.189584 -10.78537,4.557884 -4.125,1.16386 -8.66242,2.55095 -10.08315,3.08242 -3.06729,1.14743 -3.43024,1.8968 -4.18501,8.64056 -1.03163,9.2174 -4.47077,27.06082 -5.98164,31.03469 -1.31651,3.46269 -3.44867,4.17735 -5.59556,1.87554 z"
     id="path17" />
</svg>
